<?xml version="1.0" encoding="utf-8"?>
<!-- Generator: Adobe Illustrator 21.0.2, SVG Export Plug-In . SVG Version: 6.00 Build 0)  -->
<svg version="1.1" id="Layer_1" xmlns="http://www.w3.org/2000/svg" xmlns:xlink="http://www.w3.org/1999/xlink" x="0px" y="0px"
	 width="1024px" height="630px" viewBox="0 0 1024 630" style="enable-background:new 0 0 1024 630;" xml:space="preserve">
<style type="text/css">
	.st0{fill:none;stroke:#E6E6E6;stroke-width:14;stroke-miterlimit:10;}
	.st1{opacity:0.2;fill:#E6E6E6;enable-background:new    ;}
	.st2{fill:#808080;}
</style>
<g>
	<g>
		<rect x="39.5" y="27" class="st0" width="943.5" height="577"/>
	</g>
	<g>
		<polyline class="st0" points="341.8,27 341.8,345 259.2,345 		"/>
	</g>
	<g>
		<line class="st0" x1="149.9" y1="345" x2="39.5" y2="345"/>
	</g>
	<line class="st0" x1="458" y1="245" x2="346" y2="245"/>
	<path class="st1" d="M747.7,55.8v270.3c0,4.5-3.1,8.1-7,8.1H621.6c-3.8,0-7-3.6-7-8.1V55.8c0-4.5,3.1-8.1,7-8.1h119.1
		C744.6,47.7,747.7,51.4,747.7,55.8z"/>
	<rect x="976" y="95.3" class="st2" width="14" height="271.4"/>
	<path class="st1" d="M788.5,582.7h-199c-5.8,0-10.5-3.7-10.5-8.3V569h220v5.4C799,578.9,794.3,582.7,788.5,582.7z"/>
	<path class="st1" d="M728.7,69.6v45.5c0,4.2-2.9,7.6-6.5,7.6h-82c-3.6,0-6.5-3.4-6.5-7.6V69.6c0-4.2,2.9-7.6,6.5-7.6h82
		C725.8,62,728.7,65.4,728.7,69.6z"/>
	<path class="st1" d="M318.9,327.8h-50.5c-4.7,0-8.4-3.8-8.4-8.4v-157c0-4.7,3.8-8.4,8.4-8.4h50.5c4.7,0,8.4,3.8,8.4,8.4v157
		C327.3,324.1,323.5,327.8,318.9,327.8z"/>
	<path class="st1" d="M824.4,113h-51.7c-3.7,0-6.8-3-6.8-6.8V54.5c0-3.7,3-6.8,6.8-6.8h51.7c3.7,0,6.8,3,6.8,6.8v51.7
		C831.1,109.9,828.1,113,824.4,113z"/>
	<path class="st1" d="M591.8,113h-51.7c-3.7,0-6.8-3-6.8-6.8V54.5c0-3.7,3-6.8,6.8-6.8h51.7c3.7,0,6.8,3,6.8,6.8v51.7
		C598.6,109.9,595.6,113,591.8,113z"/>
	<path class="st1" d="M68.6,297.1h-8.1c-4.7,0-8.4-3.8-8.4-8.4v-53.1c0-4.7,3.8-8.4,8.4-8.4h8.1c4.7,0,8.4,3.8,8.4,8.4v53.1
		C77,293.3,73.2,297.1,68.6,297.1z"/>
	<path class="st1" d="M129.3,289.9H102c-11.1,0-20-9-20-20v-13.8c0-11.1,9-20,20-20h27.3c11.1,0,20,9,20,20v13.8
		C149.3,281,140.3,289.9,129.3,289.9z"/>
	<polygon class="st1" points="362.5,352.7 362.5,264.5 451.7,264.5 	"/>
	<path class="st1" d="M373.7,286.7l12.8-12.8c5.2-5.2,13.5-5.2,18.7,0l6.5,6.5c5.2,5.2,5.2,13.5,0,18.7l-12.8,12.8
		c-5.2,5.2-13.5,5.2-18.7,0l-6.5-6.5C368.6,300.3,368.6,291.9,373.7,286.7z"/>
	<path class="st1" d="M275.8,251v-18c0-7.3,5.9-13.2,13.2-13.2h9.1c7.3,0,13.2,5.9,13.2,13.2v18c0,7.3-5.9,13.2-13.2,13.2H289
		C281.8,264.2,275.8,258.3,275.8,251z"/>
	<path class="st1" d="M614.6,141.5v184.7c0,4.5,3.1,8.1,7,8.1h119.1c3.8,0,7-3.6,7-8.1V141.5H614.6z"/>
	<path class="st1" d="M788.5,582.7h-199c-5.8,0-10.5-3.7-10.5-8.3V569h220v5.4C799,578.9,794.3,582.7,788.5,582.7z"/>
</g>
</svg>
