<svg xmlns="http://www.w3.org/2000/svg" width="31" height="27.753" viewBox="0 0 31 27.753">
  <g id="Camada_1-2" transform="translate(0.5 0.5)">
    <g id="Grupo_4121" data-name="Grupo 4121" transform="translate(0 0)">
      <path id="Caminho_5435" data-name="Caminho 5435" d="M29.822,1.555A2.461,2.461,0,0,0,28.206.1c-.1-.029-.193-.064-.289-.1H2.084C1.9.059,1.721.106,1.549.18A2.461,2.461,0,0,0,.1,1.8c-.029.1-.064.193-.1.29V17.975a5.982,5.982,0,0,0,.322.815A2.317,2.317,0,0,0,2.4,20.058c3.244.021,6.488.012,9.733.015h.36c-.418,1.681-.83,3.335-1.246,5.007H7.57a.833.833,0,0,0-.882.617.851.851,0,0,0,.476.994.564.564,0,0,1,.075.061H22.761a.939.939,0,0,0,.575-.822.815.815,0,0,0-.828-.848c-1.145,0-2.29,0-3.435,0h-.315c-.413-1.658-.826-3.314-1.248-5.007h.336c3.149,0,6.3-.006,9.447,0a2.526,2.526,0,0,0,2.461-1.424A5.566,5.566,0,0,0,30,17.975V2.09c-.059-.179-.1-.363-.179-.535ZM12.978,25.072l.829-3.327h2.385c.274,1.1.55,2.206.829,3.327Zm15.355-7.7c0,.7-.316,1.022-1.017,1.022q-12.328,0-24.656,0a.873.873,0,0,1-.993-.992q0-7.365,0-14.731c0-.677.328-1,1.017-1H15q6.145,0,12.289,0a.889.889,0,0,1,.936.467,1.615,1.615,0,0,1,.106.633q.009,5.89,0,11.78,0,1.411,0,2.821Z" transform="translate(0 0)" fill="#fff" stroke="#fff" stroke-width="1"/>
      <path id="Caminho_5436" data-name="Caminho 5436" d="M208.965,120.73a2.885,2.885,0,1,0,2.885,2.885A2.888,2.888,0,0,0,208.965,120.73Zm0,4.327a1.442,1.442,0,1,1,1.442-1.442A1.443,1.443,0,0,1,208.965,125.057Z" transform="translate(-193.965 -113.629)" fill="#fff"/>
      <path id="Caminho_5437" data-name="Caminho 5437" d="M152.726,54.614A7.013,7.013,0,0,0,151.1,51.8a.935.935,0,0,0-1.151-.168l-.717.414a5.559,5.559,0,0,0-.875-.506v-.829a.935.935,0,0,0-.722-.913,7.056,7.056,0,0,0-3.237,0,.935.935,0,0,0-.722.913v.829a5.559,5.559,0,0,0-.875.506l-.717-.414a.936.936,0,0,0-1.151.168,7.013,7.013,0,0,0-1.623,2.809.933.933,0,0,0,.431,1.076l.719.415a5.568,5.568,0,0,0,0,1.01l-.719.415a.933.933,0,0,0-.431,1.076,7.013,7.013,0,0,0,1.623,2.809.935.935,0,0,0,1.151.168l.717-.414a5.561,5.561,0,0,0,.875.506V62.5a.935.935,0,0,0,.722.913,7.064,7.064,0,0,0,3.236,0,.935.935,0,0,0,.722-.913v-.829a5.561,5.561,0,0,0,.875-.506l.717.414a.936.936,0,0,0,1.151-.168,7.013,7.013,0,0,0,1.623-2.809.933.933,0,0,0-.431-1.076l-.719-.415a5.562,5.562,0,0,0,0-1.01l.719-.415a.933.933,0,0,0,.431-1.076Zm-2.7.939a4.464,4.464,0,0,1,0,2.115l-.037.2,1.222.705a5.5,5.5,0,0,1-.9,1.553l-1.221-.705-.155.133a4.383,4.383,0,0,1-1.83,1.058l-.192.068v1.41a5.532,5.532,0,0,1-1.794,0V60.68l-.192-.068a4.425,4.425,0,0,1-1.83-1.058l-.155-.133-1.221.705a5.5,5.5,0,0,1-.9-1.553l1.222-.705-.037-.2a4.465,4.465,0,0,1,0-2.115l.037-.2-1.222-.705a5.522,5.522,0,0,1,.9-1.554l1.221.706.155-.133a4.418,4.418,0,0,1,1.829-1.058l.192-.068V51.13a5.531,5.531,0,0,1,1.794,0v1.41l.192.068a4.416,4.416,0,0,1,1.83,1.058l.155.133,1.221-.706a5.5,5.5,0,0,1,.9,1.554l-1.222.705.037.2Z" transform="translate(-131.02 -46.748)" fill="#fff"/>
    </g>
  </g>
</svg>
