<?xml version="1.0" encoding="utf-8"?>
<!-- Generator: Adobe Illustrator 23.0.0, SVG Export Plug-In . SVG Version: 6.00 Build 0)  -->
<svg version="1.1" id="Layer_1" xmlns="http://www.w3.org/2000/svg" xmlns:xlink="http://www.w3.org/1999/xlink" x="0px" y="0px"
	 viewBox="0 0 100 100" style="enable-background:new 0 0 100 100;" xml:space="preserve">
<style type="text/css">
	.st0{fill:#FFFFFF;}
</style>
<g>
	<path class="st0" d="M29.4,80.6c0,8.1,6.7,14.8,15,14.8s15-6.6,15-14.8c0-11.1-15-27.1-15-27.1S29.4,69.5,29.4,80.6z"/>
	<path class="st0" d="M63.1,49.7c0,6.2,5.1,11.2,11.4,11.2s11.4-5,11.4-11.2c0-8.4-11.4-20.5-11.4-20.5S63.1,41.3,63.1,49.7z"/>
	<path class="st0" d="M14.1,28.5c0,7.2,6,13,13.3,13s13.3-5.8,13.3-13c0-9.8-13.3-23.9-13.3-23.9S14.1,18.7,14.1,28.5z"/>
</g>
</svg>
