<svg id="Layer_1" data-name="Layer 1" xmlns="http://www.w3.org/2000/svg" viewBox="0 0 75 75"><defs><style>.cls-1{fill:#231f20;}.cls-2{fill:none;stroke:#231f20;stroke-miterlimit:10;stroke-width:3px;}</style></defs><title>Artboard 2 copy</title><path class="cls-1" d="M38,16.66a3,3,0,0,1,3,3V46h0v4l1.55,1.71a6.12,6.12,0,1,1-9,0L35,50V19.62a3,3,0,0,1,3-3m0-6h0a9,9,0,0,0-9,9V45h0v2.75a12.11,12.11,0,1,0,17.91,0V46.21h0V19.62a9,9,0,0,0-9-9Z"/><line class="cls-2" x1="33.14" y1="44.23" x2="37.04" y2="44.23"/><line class="cls-2" x1="32.04" y1="29.86" x2="36.74" y2="29.86"/><line class="cls-2" x1="32.04" y1="36.64" x2="36.74" y2="36.64"/></svg>