<svg xmlns="http://www.w3.org/2000/svg" width="76.906" height="47.871" viewBox="0 0 76.906 47.871">
  <g id="Grupo_2849" data-name="Grupo 2849" transform="translate(0 -0.041)">
    <text id="Powered_by_" data-name="Powered by " transform="translate(36.603 7.041)" fill="#687484" font-size="7" font-family="HelveticaNeue, Helvetica Neue"><tspan x="-23.919" y="0">POWERED BY </tspan></text>
    <g id="clipboard" transform="translate(0 12.593)">
      <g id="_30817fff" data-name="#30817fff" transform="translate(27.372 0)">
        <path id="Caminho_2170" data-name="Caminho 2170" d="M361.509,154.14c.181-.167.344-.4.606-.436a.631.631,0,0,1,.744.583c.017,1.357-.019,2.715-.014,4.073-.027.357.079.8-.234,1.06q-4.753,4.731-9.508,9.462c-1,.953-1.93,1.977-2.953,2.9-1.008-.9-1.93-1.9-2.887-2.85q-3.366-3.364-6.712-6.746a.649.649,0,0,1,.317-1.089c1.435-.028,2.872.023,4.308.008.3.012.655-.045.875.207,1.213,1.2,2.4,2.418,3.611,3.621a.678.678,0,0,0,1.033-.047Q356.1,159.515,361.509,154.14Z" transform="translate(-340.362 -153.693)" fill="#30817f"/>
      </g>
      <g id="_4c4c4cff" data-name="#4c4c4cff" transform="translate(0 9.857)">
        <path id="Caminho_2171" data-name="Caminho 2171" d="M100.411,242.963a4.69,4.69,0,0,1,6.375-1.125,4.825,4.825,0,0,1,1.99,3.373,5.926,5.926,0,0,1-1.115,4.511,4.955,4.955,0,0,1-5.724,1.361,3.1,3.1,0,0,1-1.256-1.043c0,1.756,0,3.512,0,5.268q-1.32,0-2.639,0,0-5.265,0-10.528c.011-1.159-.021-2.317-.075-3.475h2.313c.042.553.087,1.106.129,1.658m2.353.2a2.732,2.732,0,0,0-2.081,2.621,4.127,4.127,0,0,0,.41,2.528,2.791,2.791,0,0,0,3.617.822,2.836,2.836,0,0,0,1.377-2.089,3.707,3.707,0,0,0-.726-3.1A2.688,2.688,0,0,0,102.765,243.167Z" transform="translate(-97.97 -241.05)" fill="#4c4c4c"/>
        <path id="Caminho_2172" data-name="Caminho 2172" d="M208.289,241.6a3.1,3.1,0,0,1,2.275-.461c0,.814,0,1.628,0,2.443a3.024,3.024,0,0,0-2.239.313,2.521,2.521,0,0,0-1.048,2.162c0,1.732,0,3.464,0,5.2-.881,0-1.76,0-2.64,0q0-3.623,0-7.246c0-.89-.014-1.781-.078-2.668.759-.017,1.517,0,2.275-.009.04.688.047,1.377.1,2.064A3.741,3.741,0,0,1,208.289,241.6Z" transform="translate(-192.524 -241.081)" fill="#4c4c4c"/>
        <path id="Caminho_2173" data-name="Caminho 2173" d="M263.814,241.184a6.287,6.287,0,0,1,4.261.777,4.781,4.781,0,0,1,2.139,3.167,5.48,5.48,0,0,1-1.023,4.439,6.08,6.08,0,0,1-8.539.379,5.335,5.335,0,0,1,.347-7.534,5.6,5.6,0,0,1,2.816-1.229m.207,1.908a2.746,2.746,0,0,0-1.879,2.066,3.977,3.977,0,0,0,.744,3.678,2.691,2.691,0,0,0,3.668.146,3.6,3.6,0,0,0,1.032-2.806,3.513,3.513,0,0,0-1.111-2.622A2.729,2.729,0,0,0,264.021,243.093Z" transform="translate(-241.045 -241.091)" fill="#4c4c4c"/>
        <path id="Caminho_2174" data-name="Caminho 2174" d="M526.9,242.886a4.694,4.694,0,0,1,6.474-1.05,4.894,4.894,0,0,1,1.92,3.538,5.868,5.868,0,0,1-1.168,4.307,4.949,4.949,0,0,1-5.729,1.313,3.105,3.105,0,0,1-1.227-1.021q0,2.627,0,5.255-1.313,0-2.624,0,0-5.087,0-10.174c-.017-1.27-.018-2.542-.09-3.811.771-.006,1.543,0,2.314,0,.045.549.087,1.1.13,1.646m2.4.2a2.682,2.682,0,0,0-1.937,1.659,6.034,6.034,0,0,0-.192,2.219,2.348,2.348,0,0,0,.684,1.625,2.814,2.814,0,0,0,3.774.18,3.147,3.147,0,0,0,.989-2.117,3.63,3.63,0,0,0-.74-2.742A2.69,2.69,0,0,0,529.307,243.083Z" transform="translate(-476.299 -240.985)" fill="#4c4c4c"/>
        <path id="Caminho_2175" data-name="Caminho 2175" d="M629.076,242.093a5.473,5.473,0,0,1,4.3-.989,4.092,4.092,0,0,1,2.609,1.537,5.658,5.658,0,0,1,.945,4.319q-3.652,0-7.305,0a2.416,2.416,0,0,0,1.144,1.92,5.408,5.408,0,0,0,3.566.488,8.545,8.545,0,0,0,1.7-.411q.2.9.394,1.8a10.265,10.265,0,0,1-4.117.675,5.669,5.669,0,0,1-3.721-1.386,4.748,4.748,0,0,1-1.441-3.14,5.542,5.542,0,0,1,1.926-4.809m2.222.835a2.757,2.757,0,0,0-1.679,2.209q2.465.007,4.929,0a2.651,2.651,0,0,0-.679-1.733A2.516,2.516,0,0,0,631.3,242.927Z" transform="translate(-567.371 -241.015)" fill="#4c4c4c"/>
        <path id="Caminho_2176" data-name="Caminho 2176" d="M729.447,241.581a3.148,3.148,0,0,1,2.353-.533c.035.816.007,1.635.016,2.454a3.056,3.056,0,0,0-2.188.277,2.459,2.459,0,0,0-1.1,2.088c-.007,1.772,0,3.545,0,5.318q-1.319,0-2.639,0c-.034-3.308.079-6.618-.078-9.923.757,0,1.514,0,2.272,0,.035.681.047,1.364.1,2.044A3.874,3.874,0,0,1,729.447,241.581Z" transform="translate(-654.912 -241.006)" fill="#4c4c4c"/>
      </g>
      <g id="_1bb295ff" data-name="#1bb295ff" transform="translate(23.488 10.07)">
        <path id="Caminho_2177" data-name="Caminho 2177" d="M438.751,242.969a.29.29,0,0,1,.5.243c0,1.13,0,2.262,0,3.393a.778.778,0,0,1-.29.641c-.88.854-1.741,1.724-2.605,2.592a.659.659,0,0,0,.018.967c1.4,1.384,2.794,2.779,4.2,4.163.079.094.213.178.191.323.007.67,0,1.339,0,2.009.659.009,1.319,0,1.98,0,.161-.043.264.1.37.2,1.213,1.2,2.42,2.4,3.63,3.606a.648.648,0,0,1-.41,1.127c-1.505.009-3.009,0-4.515,0a.738.738,0,0,1-.6-.232q-4.3-4.287-8.6-8.569c-.71-.736-1.475-1.424-2.151-2.191.454-.543.988-1.014,1.486-1.515Q435.349,246.345,438.751,242.969Z" transform="translate(-416.411 -242.865)" fill="#1bb295"/>
        <path id="Caminho_2178" data-name="Caminho 2178" d="M315.6,291.261a.717.717,0,0,1,.545-.261c.3-.01.5.238.691.428.815.844,1.678,1.641,2.471,2.506-2.463,2.542-5,5.01-7.492,7.53a.783.783,0,0,1-.641.333c-1.508,0-3.016.032-4.524.015a.654.654,0,0,1-.473-1.124Q310.88,295.97,315.6,291.261Z" transform="translate(-305.969 -285.563)" fill="#1bb295"/>
        <path id="Caminho_2179" data-name="Caminho 2179" d="M397.261,323.481c1.078-1.06,2.138-2.141,3.217-3.2,1.1,1.067,2.177,2.16,3.258,3.248a.535.535,0,0,1-.436.885c-1.808.007-3.617,0-5.426,0-.215-.007-.471.016-.628-.163A.543.543,0,0,1,397.261,323.481Z" transform="translate(-386.801 -311.538)" fill="#1bb295"/>
        <path id="Caminho_2180" data-name="Caminho 2180" d="M319.363,425.222l.635,0c0,.64,0,1.281,0,1.921h2.539c0-.64,0-1.279,0-1.919h.636q0,2.324,0,4.648c-.212,0-.423,0-.635,0,0-.725,0-1.451,0-2.176H320c0,.725,0,1.45,0,2.175h-.635C319.359,428.321,319.364,426.772,319.363,425.222Z" transform="translate(-317.849 -404.628)" fill="#1bb295"/>
        <path id="Caminho_2181" data-name="Caminho 2181" d="M364.1,425.23c.918,0,1.836,0,2.754,0,0,.174,0,.349,0,.524-.706,0-1.41,0-2.116,0v1.432c.667,0,1.335,0,2,0,0,.175,0,.35,0,.525-.667,0-1.335,0-2,0,0,.542,0,1.085,0,1.627.743.01,1.486,0,2.23,0,0,.175,0,.351,0,.527-.955,0-1.911,0-2.866,0Q364.1,427.554,364.1,425.23Z" transform="translate(-357.537 -404.637)" fill="#1bb295"/>
        <path id="Caminho_2182" data-name="Caminho 2182" d="M396.336,425.23h.776q.891,2.322,1.773,4.648l-.7,0c-.194-.491-.376-.988-.564-1.482-.61,0-1.22,0-1.829,0-.176.49-.365.976-.523,1.471-.231.009-.463.011-.693.011.584-1.55,1.165-3.1,1.756-4.649m.362.549c-.207.722-.5,1.415-.76,2.12q.771,0,1.541,0C397.216,427.193,396.927,426.5,396.7,425.779Z" transform="translate(-384.574 -404.637)" fill="#1bb295"/>
        <path id="Caminho_2183" data-name="Caminho 2183" d="M440,425.22l.635,0q0,2.053,0,4.1c.734,0,1.468,0,2.2,0,0,.18,0,.359,0,.54H440Q440,427.545,440,425.22Z" transform="translate(-424.863 -404.628)" fill="#1bb295"/>
        <path id="Caminho_2184" data-name="Caminho 2184" d="M461.361,425.23q1.926,0,3.854,0c0,.174,0,.349,0,.524-.536,0-1.072,0-1.608,0,0,1.373,0,2.746,0,4.119-.213,0-.426,0-.638,0q0-2.058,0-4.116c-.536-.01-1.073,0-1.609-.007C461.36,425.579,461.36,425.4,461.361,425.23Z" transform="translate(-443.813 -404.635)" fill="#1bb295"/>
        <path id="Caminho_2185" data-name="Caminho 2185" d="M500.986,425.22l.649,0c0,.639,0,1.278,0,1.917q1.259,0,2.519,0c0-.639,0-1.279,0-1.919h.653q0,2.324,0,4.649c-.217,0-.434,0-.649,0-.007-.726,0-1.451,0-2.176q-1.26,0-2.52,0c0,.724,0,1.449,0,2.174-.213,0-.426,0-.638.008C500.971,428.325,500.99,426.773,500.986,425.22Z" transform="translate(-478.961 -404.628)" fill="#1bb295"/>
      </g>
    </g>
  </g>
</svg>
