<svg xmlns="http://www.w3.org/2000/svg" data-name="Layer 1" width="219.50867113203066" height="203.25433556601536" style=""><rect id="backgroundrect" width="100%" height="100%" x="0" y="0" fill="none" stroke="none" class="" style=""/><defs><style>.cls-1{fill:#108843;}.cls-2{fill:#3bb76b;}.cls-3{fill:#333c49;}</style></defs><title>logo-proxper-color</title><g class="currentLayer" style=""><title>Layer 1</title><path class="cls-1" d="M176.48543323040008,61.69572479248046 l-5.16,-5.17 c-1.6900000000000008,-1.7000000000000002 -3.39,-3.39 -5.09,-5.09 l-5.35,-5.33 c-1,0.93 -1.75,1.61 -2.47,2.33 l-62.11,62.1 c-2.5300000000000002,2.5300000000000002 -2.47,2.46 -5.08,-0.11000000000000008 c-5.5600000000000005,-5.51 -11.27,-10.89 -16.8,-16.44 q-20.05,-20.13 -40,-40.38 c-0.8900000000000008,-0.91 -1.9300000000000002,-1.6900000000000008 -2.79,-2.62 a2.24,2.24 0 0 1 -0.6700000000000009,-1.6300000000000003 c0.12000000000000002,-0.4100000000000003 0.93,-0.7000000000000006 1.49,-0.8600000000000007 a6.62,6.62 0 0 1 1.6700000000000008,0 c11.84,0 23.68,0 35.52,0 a6.45,6.45 0 0 1 5,2.14 C80.37543323040009,56.37572479248047 86.22543323040009,62.11572479248048 91.95543323040008,67.88572479248046 c1.84,1.84 1.92,1.85 3.81,0 q20.79,-20.78 41.58,-41.56 c1.82,-1.82 1.81,-1.92 -0.08000000000000008,-3.8200000000000003 c-4.8,-4.82 -9.620000000000001,-9.61 -14.41,-14.43 c-0.7000000000000006,-0.7100000000000006 -1.9500000000000002,-1.44 -1.28,-2.5300000000000002 c0.3500000000000003,-0.56 1.6700000000000008,-0.7300000000000006 2.55,-0.7300000000000006 q25.08,-0.06000000000000006 50.15,0 c3,0 3.55,0.52 3.56,3.47 c0,8 0.06000000000000006,16 0,24 c-0.08000000000000008,8.95 -0.28,17.9 -0.4300000000000003,26.85 c0,0.7600000000000008 -0.12000000000000002,1.52 -0.19000000000000017,2.29 z" id="svg_1"/><path class="cls-2" d="M177.50543323040006,70.37572479248047 c1.1400000000000001,0.9400000000000006 0.81,2.14 0.81,3.2 q0,16.44 0,32.86 c0,1 0,2.08 0,3.12 a5.55,5.55 0 0 1 -1.8900000000000001,4.47 c-2.7,2.6100000000000003 -5.32,5.3 -8,8 L160.00543323040006,130.37572479248047 c-2.7600000000000002,2.75 -2.7600000000000002,2.75 0.08000000000000008,5.59 l53.92,54 a8,8 0 0 1 1.47,1.56 a3.94,3.94 0 0 1 0.54,2.19 c-0.12000000000000002,0.9500000000000006 -1.08,1 -1.9,1.08 c-0.56,0 -1.12,0 -1.6800000000000006,0 c-11.27,0 -22.55,0 -33.82,0 a6.53,6.53 0 0 1 -5.07,-2.09 q-28.44,-28.56 -57,-57 c-2.55,-2.55 -2.55,-2.59 0,-5.11 c6.1,-6.11 12.18,-12.24 18.32,-18.31 q19.43,-19.23 38.89,-38.42 C174.9454332304001,72.72572479248046 176.16543323040008,71.60572479248049 177.50543323040006,70.37572479248047 z" id="svg_2"/><path class="cls-2" d="M12.535433230400088,72.69572479248046 c0.5800000000000006,0.51 1.19,1 1.73,1.53 c3.52,3.49 7.05,7 10.52,10.52 c2.68,2.73 5.25,5.57 7.94,8.29 c2,2 4.07,3.81 6.05,5.78 c1.58,1.58 3,3.3200000000000003 4.59,4.8900000000000015 q13.4,13.23 26.86,26.4 l0.51,0.5 c2.88,2.63 2.87,2.63 0.19000000000000017,5.3100000000000005 l-56.34,56.35 c-0.6500000000000008,0.6500000000000008 -1.37,1.22 -2.46,2.18 a20.47,20.47 0 0 1 -0.37000000000000033,-2.51 c0,-12.64 0,-25.28 0,-37.91 a5,5 0 0 1 1.6600000000000001,-3.81 c4.72,-4.66 9.4,-9.38 14.09,-14.07 c0.45,-0.46 0.9,-0.91 1.33,-1.3900000000000001 a1.87,1.87 0 0 0 0,-2.7800000000000002 c-0.4300000000000003,-0.4800000000000003 -0.8800000000000007,-0.93 -1.34,-1.3800000000000001 c-4.58,-4.59 -9.12,-9.2 -13.76,-13.73 a6,6 0 0 1 -2,-4.6400000000000015 c0.06000000000000006,-12.32 0,-24.64 0,-37 c0,-0.7600000000000008 0.11000000000000008,-1.53 0.17,-2.29 z" id="svg_6"/><path class="cls-2" d="M115.36543323040007,194.37572479248047 c-4.5600000000000005,0 -9.12,0 -13.68,0 c-1.51,0 -3,0.2 -4.54,0.3000000000000003 c-0.7100000000000006,0 -1.4300000000000002,0.11000000000000008 -2.15,0.09000000000000014 c-6.39,-0.12000000000000002 -12.78,-0.34000000000000047 -19.17,-0.38000000000000034 c-4.23,0 -8.46,0.22000000000000017 -12.69,0.31000000000000033 c-2.06,0 -4.13,0.08000000000000008 -6.19,0 c-0.8200000000000006,0 -2,-0.09000000000000014 -2.36,-0.6000000000000006 c-0.6700000000000009,-0.91 0.4700000000000003,-1.53 1,-2.11 q10.74,-10.8 21.53,-21.56 c4.06,-4.07 8.15,-8.12 12.2,-12.21 c1,-1 1.77,-2.05 2.6900000000000004,-3.05 c1.15,-1.27 1.75,-1.3 3,-0.2 c0.37000000000000033,0.31000000000000033 0.690000000000001,0.6700000000000009 1,1 l31,31.07 l4.74,4.74 a3.47,3.47 0 0 1 0.79,0.8900000000000008 a1.85,1.85 0 0 1 0.18000000000000016,1.31 a1.49,1.49 0 0 1 -1.1600000000000001,0.5700000000000006 c-1.28,0 -2.55,-0.19000000000000017 -3.83,-0.19000000000000017 C123.67543323040007,194.37572479248047 119.5254332304001,194.37572479248047 115.36543323040007,194.37572479248047 z" id="svg_11"/></g></svg>