<svg id="cor" xmlns="http://www.w3.org/2000/svg" viewBox="0 0 108.33 66.1"><defs><style>.cls-1,.cls-2{fill:#a9afbb;}.cls-2{font-size:9.78px;font-family:Roboto-Regular, Roboto;}.cls-3{letter-spacing:-0.01em;}.cls-4{letter-spacing:-0.01em;}.cls-5{letter-spacing:0em;}.cls-6{letter-spacing:-0.01em;}</style></defs><title>Artboard 7</title><path class="cls-1" d="M33.22,38.31c-1.64-2-10.91-12.75-11-12.87a1,1,0,0,0-1.45,0c-.09.11-9.36,10.86-11,12.87a.38.38,0,0,0-.08.39.39.39,0,0,0,.37.17H33a.33.33,0,0,0,.27-.57Z"/><path class="cls-1" d="M33.3,41.1a.4.4,0,0,0-.37-.16H10a.38.38,0,0,0-.35.16.4.4,0,0,0,.08.4c1.64,2,10.91,12.76,11,12.87a1,1,0,0,0,1.45,0c.09-.1,9.36-10.86,11-12.87A.38.38,0,0,0,33.3,41.1Z"/><path class="cls-1" d="M37,39.4A6.09,6.09,0,0,1,38.5,35a5.39,5.39,0,0,1,4-1.55,10.29,10.29,0,0,1,3.06.54V30.7a.64.64,0,0,1,.18-.47.62.62,0,0,1,.46-.19h2.36a.61.61,0,0,1,.47.19.64.64,0,0,1,.18.47V44.54a.62.62,0,0,1-.65.65h-2a.63.63,0,0,1-.46-.19.63.63,0,0,1-.18-.46v-.33a6.08,6.08,0,0,1-3.67,1.19,5,5,0,0,1-3.81-1.56A6.23,6.23,0,0,1,37,39.4Zm3.66,0A4.69,4.69,0,0,0,41.22,42a2.1,2.1,0,0,0,1.87.82,5.09,5.09,0,0,0,2.52-1V36.38a7.46,7.46,0,0,0-2.3-.42,2.43,2.43,0,0,0-2.06.81A4.54,4.54,0,0,0,40.65,39.4Z"/><path class="cls-1" d="M52.6,43.88A5.79,5.79,0,0,1,51,39.44,5.89,5.89,0,0,1,52.61,35a6.34,6.34,0,0,1,4.54-1.56A6.34,6.34,0,0,1,61.69,35a5.89,5.89,0,0,1,1.62,4.45V40a.68.68,0,0,1-.18.48.65.65,0,0,1-.47.19H54.71a2.51,2.51,0,0,0,.74,1.76,2.94,2.94,0,0,0,2,.55,2.57,2.57,0,0,0,2.07-.71,1.53,1.53,0,0,1,1.21-.57h1.58a.63.63,0,0,1,.47.2.71.71,0,0,1,.18.5q0,3-5.77,3A6.43,6.43,0,0,1,52.6,43.88Zm2.08-5.59H59.6c-.07-1.66-.89-2.49-2.45-2.49S54.77,36.63,54.68,38.29Z"/><path class="cls-1" d="M64.93,44.54V30.7a.61.61,0,0,1,.19-.47.59.59,0,0,1,.46-.19h2.36a.61.61,0,0,1,.47.19.64.64,0,0,1,.18.47V44.54a.65.65,0,0,1-.19.47.62.62,0,0,1-.46.18H65.58a.62.62,0,0,1-.65-.65Z"/><path class="cls-1" d="M70.85,40.65V30.7a.64.64,0,0,1,.18-.47.62.62,0,0,1,.46-.19h2.37a.59.59,0,0,1,.46.19.62.62,0,0,1,.18.46v3.52h3a.64.64,0,0,1,.47.18.68.68,0,0,1,.17.47v1.26a.64.64,0,0,1-.18.47.63.63,0,0,1-.46.18h-3v3.92A2.53,2.53,0,0,0,75,42.38a1.71,1.71,0,0,0,1.35.59,6.28,6.28,0,0,0,.76-.06,4.88,4.88,0,0,1,.69-.07h.39a.64.64,0,0,1,.47.18.59.59,0,0,1,.19.45v1.1a.58.58,0,0,1-.19.41.82.82,0,0,1-.47.21,15.19,15.19,0,0,1-2.81.21Q70.85,45.4,70.85,40.65Z"/><path class="cls-1" d="M80.25,31.44v-.37a1.29,1.29,0,0,1,.32-.91,1.22,1.22,0,0,1,.9-.33h1.31a1.17,1.17,0,0,1,.88.33,1.22,1.22,0,0,1,.33.91v.37a1.29,1.29,0,0,1-.32.91,1.19,1.19,0,0,1-.89.33H81.47a1.19,1.19,0,0,1-.89-.33A1.26,1.26,0,0,1,80.25,31.44Zm0,13.11v-10a.63.63,0,0,1,.19-.46.63.63,0,0,1,.46-.18H83.3a.63.63,0,0,1,.65.64v10a.6.6,0,0,1-.19.46.62.62,0,0,1-.46.18H80.94a.64.64,0,0,1-.47-.18A.63.63,0,0,1,80.29,44.55Z"/><path class="cls-1" d="M85.32,44.86a.57.57,0,0,1,0-.18.64.64,0,0,1,.17-.42l3.68-4.87-3.43-4.85a.83.83,0,0,1-.17-.42.49.49,0,0,1,.12-.36.46.46,0,0,1,.36-.15h2.29a1.91,1.91,0,0,1,1.65.93l1.75,2.66,1.76-2.66a1.89,1.89,0,0,1,1.65-.93h2.29a.47.47,0,0,1,.37.15.53.53,0,0,1,.11.36.69.69,0,0,1-.17.42l-3.43,4.85L98,44.26a.64.64,0,0,1,.17.42.39.39,0,0,1,0,.18.42.42,0,0,1-.46.33H95.39a2,2,0,0,1-1.65-.93l-2-2.75-2,2.75a2,2,0,0,1-1.64.93H85.79A.44.44,0,0,1,85.32,44.86Z"/><path class="cls-1" d="M37.84,51.77V47.89a.29.29,0,0,1,.09-.21.28.28,0,0,1,.2-.08h3.6a.27.27,0,0,1,.29.29v.3a.28.28,0,0,1-.08.2.29.29,0,0,1-.21.09H39v.9h2.34a.31.31,0,0,1,.3.3V50a.31.31,0,0,1-.3.3H39v.92h2.71a.28.28,0,0,1,.21.08.32.32,0,0,1,.08.21v.3a.25.25,0,0,1-.09.2.27.27,0,0,1-.21.09H38.13a.25.25,0,0,1-.2-.09A.27.27,0,0,1,37.84,51.77Z"/><path class="cls-1" d="M42.56,51.77V47.9a.29.29,0,0,1,.09-.22.28.28,0,0,1,.2-.08h1.28a.43.43,0,0,1,.24.08.41.41,0,0,1,.14.21l.93,2.67.93-2.67a.38.38,0,0,1,.15-.21.4.4,0,0,1,.23-.08H48a.32.32,0,0,1,.21.08.33.33,0,0,1,.08.22v3.87a.27.27,0,0,1-.09.21.29.29,0,0,1-.21.09h-.57a.29.29,0,0,1-.22-.09.26.26,0,0,1-.08-.21V48.72l-1.1,3.07a.49.49,0,0,1-.16.2.4.4,0,0,1-.23.08h-.44A.4.4,0,0,1,45,52a.74.74,0,0,1-.16-.2l-1.09-3.07v3.05a.27.27,0,0,1-.09.21.29.29,0,0,1-.21.09h-.58a.29.29,0,0,1-.21-.09A.27.27,0,0,1,42.56,51.77Z"/><path class="cls-1" d="M48.88,50.92a.3.3,0,0,1,.1-.26.42.42,0,0,1,.22-.08h.37a.47.47,0,0,1,.42.29c.1.22.32.32.66.32l1.09,0c.37,0,.55-.12.55-.35a.31.31,0,0,0-.18-.27,1.52,1.52,0,0,0-.49-.19L51,50.24l-.73-.18a3.2,3.2,0,0,1-.66-.23,1.26,1.26,0,0,1-.47-.38.92.92,0,0,1-.18-.57,1.14,1.14,0,0,1,.44-1,2.6,2.6,0,0,1,1.54-.34l.79,0a2.09,2.09,0,0,1,1.15.33,1,1,0,0,1,.51.82.31.31,0,0,1-.11.27.37.37,0,0,1-.2.08h-.38a.46.46,0,0,1-.42-.3.66.66,0,0,0-.66-.32l-.94,0c-.37,0-.55.12-.55.36s.12.23.36.29l.84.23,1,.25a2.08,2.08,0,0,1,.85.44,1,1,0,0,1,.35.77,1.15,1.15,0,0,1-.45,1,2.67,2.67,0,0,1-1.53.33l-1,0a2.08,2.08,0,0,1-1.15-.32A1,1,0,0,1,48.88,50.92Z"/><path class="cls-1" d="M56,50.92a.28.28,0,0,1,.11-.26.37.37,0,0,1,.21-.08h.37a.45.45,0,0,1,.42.29c.1.22.32.32.66.32l1.1,0c.36,0,.55-.12.55-.35a.32.32,0,0,0-.19-.27,1.55,1.55,0,0,0-.48-.19l-.67-.16-.73-.18a3.2,3.2,0,0,1-.66-.23,1.26,1.26,0,0,1-.47-.38.92.92,0,0,1-.18-.57,1.17,1.17,0,0,1,.44-1A2.6,2.6,0,0,1,58,47.57l.79,0a2.06,2.06,0,0,1,1.15.33,1,1,0,0,1,.52.82.34.34,0,0,1-.11.27.43.43,0,0,1-.21.08h-.37a.44.44,0,0,1-.42-.3.68.68,0,0,0-.67-.32l-.94,0c-.36,0-.55.12-.55.36s.12.23.36.29l.84.23,1,.25a2.11,2.11,0,0,1,.84.44,1,1,0,0,1,.35.77,1.15,1.15,0,0,1-.45,1,2.65,2.65,0,0,1-1.53.33l-.94,0a2.11,2.11,0,0,1-1.16-.32A1,1,0,0,1,56,50.92Z"/><path class="cls-1" d="M61.6,51.61A2.25,2.25,0,0,1,61,49.83a2.23,2.23,0,0,1,.64-1.77,3.4,3.4,0,0,1,3.74,0A2.23,2.23,0,0,1,66,49.83a2.25,2.25,0,0,1-.64,1.78,3.4,3.4,0,0,1-3.74,0Zm.85-2.89a2.1,2.1,0,0,0,0,2.23,1.59,1.59,0,0,0,2,0,2.16,2.16,0,0,0,0-2.23,1.59,1.59,0,0,0-2,0Z"/><path class="cls-1" d="M66.58,51.78V47.9a.29.29,0,0,1,.09-.22.32.32,0,0,1,.21-.08h.59a.28.28,0,0,1,.2.08.29.29,0,0,1,.09.22v3.29h2.72a.28.28,0,0,1,.2.08.29.29,0,0,1,.09.21v.3a.31.31,0,0,1-.29.29h-3.6a.32.32,0,0,1-.21-.08A.29.29,0,0,1,66.58,51.78Z"/><path class="cls-1" d="M71,50.3V47.89a.29.29,0,0,1,.09-.21.32.32,0,0,1,.21-.08h.58a.3.3,0,0,1,.21.08.29.29,0,0,1,.09.21V50.3a1,1,0,0,0,.2.69.78.78,0,0,0,.62.22h.5a.78.78,0,0,0,.62-.22,1,1,0,0,0,.2-.69V47.89a.29.29,0,0,1,.09-.21.32.32,0,0,1,.21-.08h.58a.32.32,0,0,1,.21.08.29.29,0,0,1,.09.21V50.3a1.73,1.73,0,0,1-.5,1.32,2.06,2.06,0,0,1-1.47.47H73a2.06,2.06,0,0,1-1.47-.47A1.73,1.73,0,0,1,71,50.3Z"/><path class="cls-1" d="M75.9,48.19v-.3a.32.32,0,0,1,.08-.21.33.33,0,0,1,.22-.08h4a.29.29,0,0,1,.3.29v.3a.29.29,0,0,1-.3.29H78.76v3.3a.27.27,0,0,1-.29.29h-.59a.32.32,0,0,1-.21-.08.28.28,0,0,1-.08-.21v-3.3H76.2A.33.33,0,0,1,76,48.4.32.32,0,0,1,75.9,48.19Z"/><path class="cls-1" d="M80.93,51.78V47.89a.28.28,0,0,1,.08-.21.32.32,0,0,1,.21-.08h.58a.33.33,0,0,1,.22.08.32.32,0,0,1,.08.21v3.89A.25.25,0,0,1,82,52a.29.29,0,0,1-.21.09h-.58A.32.32,0,0,1,81,52,.28.28,0,0,1,80.93,51.78Z"/><path class="cls-1" d="M83.34,51.61a2.28,2.28,0,0,1-.63-1.78,2.26,2.26,0,0,1,.63-1.77,3.42,3.42,0,0,1,3.75,0,2.26,2.26,0,0,1,.64,1.77,2.29,2.29,0,0,1-.64,1.78,3.42,3.42,0,0,1-3.75,0Zm.86-2.89a2.1,2.1,0,0,0,0,2.23,1.26,1.26,0,0,0,1,.37,1.24,1.24,0,0,0,1-.37,2.1,2.1,0,0,0,0-2.23,1.24,1.24,0,0,0-1-.37A1.26,1.26,0,0,0,84.2,48.72Z"/><path class="cls-1" d="M88.33,51.78V47.89a.27.27,0,0,1,.29-.29h.93a.46.46,0,0,1,.23.08.8.8,0,0,1,.2.21l1.9,2.9v-2.9a.29.29,0,0,1,.09-.21.28.28,0,0,1,.2-.08h.51a.27.27,0,0,1,.28.29v3.89a.24.24,0,0,1-.08.2.29.29,0,0,1-.21.09h-1a.4.4,0,0,1-.24-.09.55.55,0,0,1-.2-.2l-1.7-2.68v2.68a.25.25,0,0,1-.09.2.29.29,0,0,1-.22.09h-.56a.29.29,0,0,1-.22-.09A.25.25,0,0,1,88.33,51.78Z"/><path class="cls-1" d="M93.58,50.92a.28.28,0,0,1,.11-.26.37.37,0,0,1,.21-.08h.37a.45.45,0,0,1,.42.29c.1.22.32.32.66.32l1.1,0c.36,0,.54-.12.54-.35a.31.31,0,0,0-.18-.27,1.52,1.52,0,0,0-.49-.19l-.66-.16-.73-.18a3.2,3.2,0,0,1-.66-.23,1.26,1.26,0,0,1-.47-.38.92.92,0,0,1-.18-.57,1.17,1.17,0,0,1,.44-1,2.6,2.6,0,0,1,1.54-.34l.79,0a2.06,2.06,0,0,1,1.15.33,1,1,0,0,1,.51.82A.33.33,0,0,1,98,49a.43.43,0,0,1-.21.08h-.37a.46.46,0,0,1-.43-.3.66.66,0,0,0-.66-.32l-.94,0c-.36,0-.55.12-.55.36s.12.23.36.29l.84.23,1,.25a2.11,2.11,0,0,1,.84.44,1,1,0,0,1,.35.77,1.15,1.15,0,0,1-.45,1,2.67,2.67,0,0,1-1.53.33l-1,0a2.08,2.08,0,0,1-1.15-.32A1,1,0,0,1,93.58,50.92Z"/><text class="cls-2" transform="translate(27.42 18.33)"><tspan class="cls-3">P</tspan><tspan x="6.11" y="0">owe</tspan><tspan class="cls-4" x="24.21" y="0">r</tspan><tspan class="cls-5" x="27.43" y="0">ed </tspan><tspan class="cls-6" x="40.55" y="0">b</tspan><tspan x="45.98" y="0">y:</tspan></text></svg>