<svg xmlns="http://www.w3.org/2000/svg" width="10.8mm" height="20mm" viewBox="0 0 30.7 56.7">
  <defs>
    <style>
      .cls-1 {
        fill: #757575;
        stroke: #757575;
      }

      .cls-1, .cls-10, .cls-11, .cls-12, .cls-13, .cls-14, .cls-15, .cls-16, .cls-17, .cls-18, .cls-19, .cls-2, .cls-20, .cls-21, .cls-22, .cls-3, .cls-4, .cls-5, .cls-6, .cls-7, .cls-9 {
        stroke-miterlimit: 10;
        stroke-width: 0.1px;
      }

      .cls-2 {
        fill: #929292;
        stroke: #929292;
      }

      .cls-3 {
        fill: #afafaf;
        stroke: #afafaf;
      }

      .cls-4 {
        fill: #cbcbcb;
        stroke: #cbcbcb;
      }

      .cls-5 {
        fill: #d6d6d6;
        stroke: #d6d6d6;
      }

      .cls-6 {
        fill: #dfdfdf;
        stroke: #dfdfdf;
      }

      .cls-7 {
        fill: #585858;
        stroke: #585858;
      }

      .cls-8 {
        fill: none;
      }

      .cls-9 {
        fill: #5c5c5c;
        stroke: #5c5c5c;
      }

      .cls-10 {
        fill: #7e7e7e;
        stroke: #7e7e7e;
      }

      .cls-11 {
        fill: #818181;
        stroke: #818181;
      }

      .cls-12 {
        fill: #727272;
        stroke: #727272;
      }

      .cls-13 {
        fill: #8a8a8a;
        stroke: #8a8a8a;
      }

      .cls-14 {
        fill: #979797;
        stroke: #979797;
      }

      .cls-15 {
        fill: #9c9c9c;
        stroke: #9c9c9c;
      }

      .cls-16 {
        fill: #a3a3a3;
        stroke: #a3a3a3;
      }

      .cls-17 {
        fill: #c4c4c4;
        stroke: #c4c4c4;
      }

      .cls-18 {
        fill: #acacac;
        stroke: #acacac;
      }

      .cls-19 {
        fill: #cdcdcd;
        stroke: #cdcdcd;
      }

      .cls-20 {
        fill: #d4d4d4;
        stroke: #d4d4d4;
      }

      .cls-21 {
        fill: gray;
        stroke: gray;
      }

      .cls-22 {
        fill: #939393;
        stroke: #939393;
      }
    </style>
  </defs>
  <title>pump</title>
  <g id="BMS_1st">
    <g id="pump_01">
      <g>
        <path class="cls-1" d="M14.6,53.5,8.4,52.3,7.9,52l6.2,1.2.5.3" transform="translate(-7.1 -2.5)"/>
        <path class="cls-2" d="M14.1,53.2,7.9,52a2,2,0,0,1-.4-.8l6.2,1.2a2,2,0,0,0,.4.8" transform="translate(-7.1 -2.5)"/>
        <path class="cls-3" d="M13.7,52.4,7.5,51.2A4.3,4.3,0,0,1,7.3,50l6.2,1.3a3.6,3.6,0,0,0,.2,1.1" transform="translate(-7.1 -2.5)"/>
        <path class="cls-4" d="M13.5,50.7h0L7.3,49.4h0V50l6.2,1.3Z" transform="translate(-7.1 -2.5)"/>
        <path class="cls-1" d="M14.4,46.6,8.2,45.4a4.9,4.9,0,0,1,1-1.3.7.7,0,0,1,.6-.2L16,45.1l-.6.2a4.9,4.9,0,0,0-1,1.3" transform="translate(-7.1 -2.5)"/>
        <path class="cls-2" d="M13.9,47.8,7.7,46.6l.5-1.2,6.2,1.2-.5,1.2" transform="translate(-7.1 -2.5)"/>
        <path class="cls-3" d="M13.7,48.4,7.6,47.2c0-.2.1-.4.1-.6l6.2,1.2a1.4,1.4,0,0,1-.2.6" transform="translate(-7.1 -2.5)"/>
        <path class="cls-4" d="M13.6,48.9,7.4,47.7l.2-.5,6.1,1.2a.9.9,0,0,1-.1.5" transform="translate(-7.1 -2.5)"/>
        <path class="cls-5" d="M13.5,49.5,7.4,48.2v-.5l6.2,1.2a1.3,1.3,0,0,1-.1.6" transform="translate(-7.1 -2.5)"/>
        <path class="cls-6" d="M13.5,50.1,7.3,48.8a1.3,1.3,0,0,1,.1-.6l6.1,1.3v.6" transform="translate(-7.1 -2.5)"/>
        <path class="cls-5" d="M13.5,50.6,7.3,49.4v-.6l6.2,1.3v.5" transform="translate(-7.1 -2.5)"/>
        <path class="cls-2" d="M20.1,58.7l-5.9-5.4a2.2,2.2,0,0,1-.5-.8l5.5,4.7.9,1.5" transform="translate(-7.1 -2.5)"/>
        <path class="cls-3" d="M19.2,57.2l-5.5-4.7a8.2,8.2,0,0,1-.2-1.8l5.2,2.9a12.5,12.5,0,0,0,.5,3.6" transform="translate(-7.1 -2.5)"/>
        <path class="cls-1" d="M22.1,43.3l-7,2.3.3-.3h.3l7.5-2.7a.9.9,0,0,0-.6.3,1.2,1.2,0,0,0-.5.5" transform="translate(-7.1 -2.5)"/>
        <path class="cls-2" d="M19.6,47.7H13.9a7.5,7.5,0,0,1,1.2-2.2l7-2.3a11.6,11.6,0,0,0-2.5,4.4" transform="translate(-7.1 -2.5)"/>
        <path class="cls-3" d="M18.7,53.6l-5.2-2.9a9.2,9.2,0,0,1,.4-2.9h5.7a23.4,23.4,0,0,0-.9,5.9" transform="translate(-7.1 -2.5)"/>
        <path class="cls-1" d="M29.3,56.2,21.9,59c-1.1.4-2.1-.3-2.7-1.9L28,55.3c.2.8.7,1.2,1.3.9" transform="translate(-7.1 -2.5)"/>
        <path class="cls-2" d="M28,55.3l-8.8,1.8a11.3,11.3,0,0,1-.5-3.5h9a4.2,4.2,0,0,0,.3,1.8" transform="translate(-7.1 -2.5)"/>
        <path class="cls-1" d="M28.2,50.6l-8.6-2.9a10.8,10.8,0,0,1,3-4.9,1.7,1.7,0,0,1,2.3.1l5.8,5.4c-.3-.4-.7-.5-1-.2a5.1,5.1,0,0,0-1.5,2.5" transform="translate(-7.1 -2.5)"/>
        <path class="cls-2" d="M27.7,53.5h-9a23.4,23.4,0,0,1,.9-5.9l8.6,2.9a9.8,9.8,0,0,0-.5,2.9" transform="translate(-7.1 -2.5)"/>
        <path class="cls-1" d="M35,57.5l-6.2-1.2a.5.5,0,0,1-.4-.3l6.2,1.2a.5.5,0,0,0,.4.3" transform="translate(-7.1 -2.5)"/>
        <path class="cls-2" d="M34.6,57.2,28.4,56a2.2,2.2,0,0,1-.5-.8l6.2,1.2a1.6,1.6,0,0,0,.5.8" transform="translate(-7.1 -2.5)"/>
        <path class="cls-3" d="M34.1,56.4l-6.2-1.2c-.1-.3-.1-.7-.2-1.1l6.2,1.2a3.6,3.6,0,0,0,.2,1.1" transform="translate(-7.1 -2.5)"/>
        <path class="cls-4" d="M33.9,54.8h0l-6.2-1.2h0v.6l6.2,1.2Z" transform="translate(-7.1 -2.5)"/>
        <path class="cls-1" d="M34.8,50.7l-6.1-1.3a3.2,3.2,0,0,1,1-1.3c.2-.1.3-.2.5-.1l6.2,1.2a.4.4,0,0,0-.5.1,4,4,0,0,0-1.1,1.4" transform="translate(-7.1 -2.5)"/>
        <path class="cls-2" d="M34.4,51.8l-6.2-1.2a6.1,6.1,0,0,1,.5-1.2l6.1,1.3c-.1.3-.3.7-.4,1.1" transform="translate(-7.1 -2.5)"/>
        <path class="cls-3" d="M34.2,52.5,28,51.2a1.4,1.4,0,0,1,.2-.6l6.2,1.2a1.4,1.4,0,0,0-.2.7" transform="translate(-7.1 -2.5)"/>
        <path class="cls-4" d="M34.1,52.9l-6.2-1.2a4.3,4.3,0,0,0,.1-.5l6.2,1.3c0,.1-.1.3-.1.4" transform="translate(-7.1 -2.5)"/>
        <path class="cls-5" d="M34,53.5l-6.2-1.2a1.3,1.3,0,0,1,.1-.6l6.2,1.2a1.3,1.3,0,0,0-.1.6" transform="translate(-7.1 -2.5)"/>
        <path class="cls-6" d="M33.9,54.1l-6.2-1.2c0-.2.1-.4.1-.6L34,53.5c0,.2-.1.4-.1.6" transform="translate(-7.1 -2.5)"/>
        <path class="cls-5" d="M33.9,54.7l-6.2-1.2v-.6l6.2,1.2v.6" transform="translate(-7.1 -2.5)"/>
        <path class="cls-7" d="M33.9,54.8c0-2.2.9-4.7,2-5.5s2,1.3,1.9,2.5-.8,4.7-1.9,5.5S33.9,56.9,33.9,54.8Z" transform="translate(-7.1 -2.5)"/>
      </g>
      <path id="mask1" class="cls-8" d="M30.4,48l-5.5-5.1a1.4,1.4,0,0,0-1.7-.4h0l-7.4,2.6-6-1.2a.7.7,0,0,0-.6.2c-1.1.8-1.9,3.2-1.9,5.4s.4,2.6,1.1,2.8l6,1.1h.1l.3.3.6.5.6.6.3.3.6.5a1.5,1.5,0,0,0,.6.5l.3.3a1.5,1.5,0,0,0,.6.5c0,.1.2.2.3.3s.4.4.6.6.2.1.2.2.5.4.6.6h0a1.7,1.7,0,0,0,1.8.3l7.2-2.7L35,57.5c-.6-.1-1.1-1.1-1.1-2.7s.9-4.7,2-5.5a.4.4,0,0,1,.5-.1Z" transform="translate(-7.1 -2.5)"/>
      <g>
        <path class="cls-2" d="M14.2,42.7,14,47.3a3.1,3.1,0,0,1-.2-.8l.2-4.6a1.9,1.9,0,0,0,.2.8" transform="translate(-7.1 -2.5)"/>
        <path class="cls-3" d="M16,44.3l-.2,4.6A4.1,4.1,0,0,1,14,47.3l.2-4.6A4.1,4.1,0,0,0,16,44.3" transform="translate(-7.1 -2.5)"/>
        <path class="cls-4" d="M19.6,45.4A11.7,11.7,0,0,1,16,44.3l-.2,4.6A11.7,11.7,0,0,0,19.4,50h.5l.2-4.6Z" transform="translate(-7.1 -2.5)"/>
        <path class="cls-1" d="M30.2,42.7l-.3,4.5a1.7,1.7,0,0,1-.3,1c-1,1.2-3.3,1.9-6,2.1l.2-4.6c2.7-.1,5.1-.9,6-2.1a3.6,3.6,0,0,0,.4-.9" transform="translate(-7.1 -2.5)"/>
        <path class="cls-2" d="M23.8,45.7l-.2,4.6H21.3l.3-4.5h2.2" transform="translate(-7.1 -2.5)"/>
        <path class="cls-3" d="M21.6,45.7l-.3,4.5H19.9l.2-4.6,1.5.2" transform="translate(-7.1 -2.5)"/>
        <path class="cls-9" d="M19.6,45.4c-4.2-.7-6.6-2.7-5.2-4.5s5.9-2.5,10.2-1.8,6.5,2.8,5.2,4.5S23.9,46.2,19.6,45.4Z" transform="translate(-7.1 -2.5)"/>
        <path class="cls-10" d="M10.2,40.5l2.2,4.4a3.9,3.9,0,0,1-1.8-1.4l-3-5a6.3,6.3,0,0,0,2.6,2" transform="translate(-7.1 -2.5)"/>
        <polygon class="cls-11" points="8.4 40.4 10.6 44.8 5.3 42.4 3.1 38 8.4 40.4"/>
        <path class="cls-10" d="M37,38.3l-3,5.1a3.6,3.6,0,0,1-1.6,1.3l2.2-4.4a5.5,5.5,0,0,0,2.4-2" transform="translate(-7.1 -2.5)"/>
        <polygon class="cls-12" points="27.5 37.8 25.2 42.2 20.1 44.7 22.3 40.3 27.5 37.8"/>
        <path class="cls-10" d="M29.4,42.8l-2.2,4.4a13.2,13.2,0,0,1-9.4.1l-2.2-4.4a19.3,19.3,0,0,0,13.8-.1" transform="translate(-7.1 -2.5)"/>
        <path class="cls-13" d="M7.5,14.7V38.4a2.8,2.8,0,0,1-.4-1.2V13.6a2,2,0,0,0,.3,1.1" transform="translate(-7.1 -2.5)"/>
        <path class="cls-14" d="M10.2,16.8V40.5a5.2,5.2,0,0,1-2.6-2.1V14.7a6.1,6.1,0,0,0,2.7,2.1" transform="translate(-7.1 -2.5)"/>
        <polygon class="cls-15" points="8.4 16.7 8.4 40.4 3.1 38 3 14.3 8.4 16.7"/>
        <path class="cls-14" d="M21.3,20.4V44.1a16.5,16.5,0,0,1-5.7-1.2V19.2a17.6,17.6,0,0,0,5.8,1.2" transform="translate(-7.1 -2.5)"/>
        <path class="cls-10" d="M37.3,13.4V37.1c0,1.1-.9,2.3-2.7,3.2V16.6c1.8-.9,2.7-2,2.7-3.2" transform="translate(-7.1 -2.5)"/>
        <polygon class="cls-1" points="27.4 14.1 27.5 37.8 22.3 40.3 22.2 16.6 27.4 14.1"/>
        <path class="cls-10" d="M29.4,19.1V42.8A15.4,15.4,0,0,1,24.7,44V20.3a16.2,16.2,0,0,0,4.7-1.2" transform="translate(-7.1 -2.5)"/>
        <path class="cls-13" d="M24.7,20.3V44a19.3,19.3,0,0,1-3.4.1V20.4a12.9,12.9,0,0,0,3.4-.1" transform="translate(-7.1 -2.5)"/>
        <path class="cls-13" d="M10.4,7.5l-3,5.2.2-.4,3-5-.2.2" transform="translate(-7.1 -2.5)"/>
        <path class="cls-14" d="M10.3,8.4,7.2,13.9a2.5,2.5,0,0,1,.2-1.2l3-5.2a2.8,2.8,0,0,0-.1.9" transform="translate(-7.1 -2.5)"/>
        <path class="cls-16" d="M10.8,9.3,7.9,15.2a2.4,2.4,0,0,1-.7-1.3l3.1-5.5a2,2,0,0,0,.5.9" transform="translate(-7.1 -2.5)"/>
        <path class="cls-3" d="M12.1,10.2,9.8,16.6a4.9,4.9,0,0,1-1.9-1.4l2.9-5.9a4.8,4.8,0,0,0,1.3.9" transform="translate(-7.1 -2.5)"/>
        <path class="cls-17" d="M12.3,10.3l-2.1,6.5-.4-.2,2.3-6.4h.2" transform="translate(-7.1 -2.5)"/>
        <polygon class="cls-18" points="10.6 10.2 8.4 16.7 3 14.3 5.2 7.9 10.6 10.2"/>
        <path class="cls-17" d="M18.3,12.9l-1.9,6.6-.9-.3,2.2-6.5.6.2" transform="translate(-7.1 -2.5)"/>
        <path class="cls-19" d="M18.9,13.2l-1.6,6.6-.9-.3,1.9-6.6.6.3" transform="translate(-7.1 -2.5)"/>
        <path class="cls-20" d="M20.6,13.5l-.8,6.8-2.5-.5,1.6-6.6,1.7.3" transform="translate(-7.1 -2.5)"/>
        <path class="cls-19" d="M21.2,13.5l-.5,6.9h-.9l.8-6.8h.6" transform="translate(-7.1 -2.5)"/>
        <path class="cls-17" d="M21.8,13.6l-.3,6.8h-.8l.5-6.9h.6" transform="translate(-7.1 -2.5)"/>
        <path class="cls-10" d="M33.9,7.2l3,5c.9,1.5.2,3.2-2.3,4.4l-2.3-6.5c1.7-.8,2.2-1.9,1.6-2.9" transform="translate(-7.1 -2.5)"/>
        <polygon class="cls-21" points="25.2 7.7 27.4 14.1 22.2 16.6 20 10.2 25.2 7.7"/>
        <path class="cls-10" d="M27.1,12.6l2.3,6.5-1.3.5L26.3,13l.8-.4" transform="translate(-7.1 -2.5)"/>
        <path class="cls-13" d="M26.3,13l1.8,6.6-2.4.6-1.1-6.8,1.7-.4" transform="translate(-7.1 -2.5)"/>
        <path class="cls-14" d="M24.6,13.4l1.1,6.8-2,.2-.4-6.9h1.3" transform="translate(-7.1 -2.5)"/>
        <path class="cls-16" d="M23.3,13.5l.4,6.9H22.4V13.6h.9" transform="translate(-7.1 -2.5)"/>
        <path class="cls-3" d="M22.4,13.6v6.9h-.9l.3-6.8h.6" transform="translate(-7.1 -2.5)"/>
        <path class="cls-22" d="M12.3,10.3C9.7,9.2,9.6,7.2,12.2,6l5.1-2.5a12.5,12.5,0,0,1,9.5-.1l5.3,2.4c2.7,1.1,2.8,3.1.2,4.3l-5.2,2.5a12.2,12.2,0,0,1-9.4.1Z" transform="translate(-7.1 -2.5)"/>
      </g>
      <path id="mask2" class="cls-8" d="M37.3,14.4a3.3,3.3,0,0,0-.4-2.2l-3-5h0a3.9,3.9,0,0,0-1.8-1.4L26.8,3.4a12.5,12.5,0,0,0-9.5.1L12.2,6a2.7,2.7,0,0,0-1.6,1.3h0l-3,5a3.5,3.5,0,0,0-.4,2.3V37.2a2.8,2.8,0,0,0,.4,1.3h0l3,5a3.9,3.9,0,0,0,1.8,1.4l1.4.6v1c-.1,1.4,2.1,2.9,5.6,3.5s8.8-.1,10.2-1.8a1.7,1.7,0,0,0,.3-1V45.8l2.4-1.1h0A3.6,3.6,0,0,0,34,43.4l3-5.1h0a2.7,2.7,0,0,0,.3-1.2Z" transform="translate(-7.1 -2.5)"/>
    </g>
  </g>
</svg>
