<svg xmlns="http://www.w3.org/2000/svg" width="34.968" height="34.968" viewBox="0 0 34.968 34.968">
  <path id="Caminho_21" data-name="Caminho 21" d="M354.4,123.3a16.707,16.707,0,0,1,12.381-5.1,17.12,17.12,0,0,1,12.381,5.1,16.707,16.707,0,0,1,5.1,12.381,17.119,17.119,0,0,1-5.1,12.381,16.707,16.707,0,0,1-12.381,5.1,17.119,17.119,0,0,1-12.381-5.1,16.707,16.707,0,0,1-5.1-12.381A17.119,17.119,0,0,1,354.4,123.3Zm2.476,22.286a13.95,13.95,0,1,0-4.127-9.905A13.492,13.492,0,0,0,356.879,145.589ZM367.684,126.9v9.155l7.879,4.652-1.351,2.251-9.23-5.553V126.9Z" transform="translate(-349.3 -118.2)" fill="#fff"/>
</svg>
