<svg xmlns="http://www.w3.org/2000/svg" width="32" height="24.9" viewBox="0 0 32 24.9">
  <path id="bell-concierge-solid" d="M17.529,69.272V67.113h1a1.557,1.557,0,0,0,0-3.113H13.466a1.505,1.505,0,0,0-1.446,1.5,1.615,1.615,0,0,0,1.446,1.615h1.058v2.161A14.348,14.348,0,0,0,2,83.713H30.05A14.35,14.35,0,0,0,17.529,69.272ZM30.551,85.788H1.5a1.515,1.515,0,0,0-1.5,1.5A1.536,1.536,0,0,0,1.446,88.9H30.494A1.518,1.518,0,0,0,32,87.4,1.465,1.465,0,0,0,30.551,85.788Z" transform="translate(0 -64)" fill="#fff"/>
</svg>
