<svg xmlns="http://www.w3.org/2000/svg" width="29.64" height="32.934" viewBox="0 0 29.64 32.934">
  <path id="Caminho_23" data-name="Caminho 23" d="M26.347,3.293a2.99,2.99,0,0,1,2.305.988,2.99,2.99,0,0,1,.988,2.305V29.64a3.377,3.377,0,0,1-3.293,3.293H3.293a2.99,2.99,0,0,1-2.305-.988A2.99,2.99,0,0,1,0,29.64V6.587A2.99,2.99,0,0,1,.988,4.281a2.99,2.99,0,0,1,2.305-.988H4.94V0H8.233V3.293H21.407V0H24.7V3.293Zm0,26.347V11.527H3.293V29.64ZM9.88,14.82v3.293H6.587V14.82Zm6.587,0v3.293H13.173V14.82Zm6.587,0v3.293H19.76V14.82Z" fill="#fff" opacity="0.8"/>
</svg>
