<svg xmlns="http://www.w3.org/2000/svg" width="23.375" height="21.025" viewBox="0 0 23.375 21.025">
  <path id="Caminho_287" data-name="Caminho 287" d="M56.225,5.676H67.975V22.125H44.6V1.1H56.225Zm-7.049,0V3.45h-2.35V5.8h2.35Zm0,4.823V8.149h-2.35V10.5Zm0,4.576v-2.35h-2.35v2.35Zm0,4.7v-2.35h-2.35v2.35Zm4.7-14.1V3.45h-2.35V5.8h2.35Zm0,4.823V8.149h-2.35V10.5Zm0,4.576v-2.35h-2.35v2.35Zm0,4.7v-2.35h-2.35v2.35Zm11.749,0V8.149h-9.4V10.5h2.35v2.35h-2.35V15.2h2.35v2.35h-2.35V19.9h9.4ZM63.275,10.5v2.35h-2.35V10.5Zm0,4.576v2.35h-2.35v-2.35Z" transform="translate(-44.6 -1.1)" fill="#fff"/>
</svg>
