<svg id="Grupo_4191" data-name="Grupo 4191" xmlns="http://www.w3.org/2000/svg" width="21.928" height="19.094" viewBox="0 0 21.928 19.094">
  <path id="Caminho_5478" data-name="Caminho 5478" d="M1.651,7.59,8.4,3.127,13.44,7.54a1.1,1.1,0,0,0,1.385,0l4.5-3.866L19.09,4.969a1.037,1.037,0,0,0,.83,1.211,1.481,1.481,0,0,0,.191.017,1.039,1.039,0,0,0,1.02-.846L21.9,1.227A1.024,1.024,0,0,0,21.67.364.971.971,0,0,0,20.848,0l-4.2.124a1.033,1.033,0,0,0-1,1.07,1.007,1.007,0,0,0,1.07,1l1.137-.033-3.7,3.177L9.184.995A1.061,1.061,0,0,0,7.9.912L.473,5.865a1.05,1.05,0,0,0-.29,1.468,1.016,1.016,0,0,0,1.468.257Z" transform="translate(0.001 0.005)" fill="#fff"/>
  <path id="Caminho_5479" data-name="Caminho 5479" d="M2.974,14.48A2.15,2.15,0,0,0,.85,16.6v2.829a2.1,2.1,0,0,0,2.124,2.124A2.1,2.1,0,0,0,5.1,19.433V16.6A2.15,2.15,0,0,0,2.974,14.48Zm.357,4.953a.335.335,0,0,1-.357.357.331.331,0,0,1-.357-.357V16.6a.383.383,0,0,1,.357-.357.383.383,0,0,1,.357.357Z" transform="translate(-0.144 -2.463)" fill="#fff"/>
  <path id="Caminho_5480" data-name="Caminho 5480" d="M16.614,12.77a2.15,2.15,0,0,0-2.124,2.124v4.239a2.124,2.124,0,1,0,4.248,0V14.894A2.155,2.155,0,0,0,16.614,12.77Zm.357,6.363a.335.335,0,0,1-.357.357.331.331,0,0,1-.357-.357V14.894a.357.357,0,1,1,.713,0Z" transform="translate(-2.468 -2.171)" fill="#fff"/>
  <path id="Caminho_5481" data-name="Caminho 5481" d="M23.434,9.36a2.15,2.15,0,0,0-2.124,2.124v7.068a2.124,2.124,0,1,0,4.248,0V11.484A2.155,2.155,0,0,0,23.434,9.36Zm.357,9.192a.335.335,0,0,1-.357.357.331.331,0,0,1-.357-.357V11.484a.357.357,0,0,1,.713,0v7.068Z" transform="translate(-3.63 -1.59)" fill="#fff"/>
  <path id="Caminho_5482" data-name="Caminho 5482" d="M9.794,9.36A2.15,2.15,0,0,0,7.67,11.484v7.068a2.124,2.124,0,1,0,4.248,0V11.484A2.155,2.155,0,0,0,9.794,9.36Zm.357,9.192a.335.335,0,0,1-.357.357.331.331,0,0,1-.357-.357V11.484a.357.357,0,0,1,.713,0v7.068Z" transform="translate(-1.306 -1.59)" fill="#fff"/>
</svg>
