<svg xmlns="http://www.w3.org/2000/svg" width="21.204" height="21.209" viewBox="0 0 21.204 21.209">
  <path id="Icon_awesome-globe" data-name="Icon awesome-globe" d="M14.389,7.062c-.62-3.818-2.082-6.5-3.784-6.5S7.44,3.244,6.82,7.062ZM6.5,11.167A26.8,26.8,0,0,0,6.641,13.9h7.923a26.8,26.8,0,0,0,.141-2.737,26.8,26.8,0,0,0-.141-2.737H6.641A26.8,26.8,0,0,0,6.5,11.167Zm13.884-4.1a10.627,10.627,0,0,0-6.756-6.055,14.432,14.432,0,0,1,2.138,6.055ZM7.577,1.007A10.62,10.62,0,0,0,.825,7.062H5.443A14.373,14.373,0,0,1,7.577,1.007ZM20.841,8.43h-4.9c.09.9.141,1.817.141,2.737s-.051,1.839-.141,2.737h4.9a10.513,10.513,0,0,0,.368-2.737A10.7,10.7,0,0,0,20.841,8.43ZM5.131,11.167c0-.919.051-1.839.141-2.737H.368a10.367,10.367,0,0,0,0,5.473h4.9C5.182,13.006,5.131,12.086,5.131,11.167Zm1.689,4.1c.62,3.818,2.082,6.5,3.784,6.5s3.164-2.681,3.784-6.5Zm6.812,6.055a10.637,10.637,0,0,0,6.756-6.055H15.77a14.432,14.432,0,0,1-2.138,6.055ZM.825,15.272a10.627,10.627,0,0,0,6.756,6.055,14.432,14.432,0,0,1-2.138-6.055H.825Z" transform="translate(0 -0.563)" fill="#fff" opacity="0.998"/>
</svg>
